<svg xmlns="http://www.w3.org/2000/svg" width="275" height="38" fill="none"><path fill="#000" d="M155.418 19.43h15v2.46h-15v-2.46ZM189.389 20.15h-3.9V29h-3.84V8h3.84v8.79h4.02l6.03-8.79h4.14l-7.17 10.17 7.44 10.83h-4.41l-6.15-8.85Z"/><path fill="#000" d="m217.091 12.98-7.5 17.31c-.7 1.74-1.55 2.96-2.55 3.66-1 .72-2.21 1.08-3.63 1.08-.8 0-1.59-.13-2.37-.39s-1.42-.62-1.92-1.08l1.5-2.76c.36.34.78.61 1.26.81.5.2 1 .3 1.5.3.66 0 1.2-.17 1.62-.51.44-.34.84-.91 1.2-1.71l.27-.63-6.99-16.08h3.9l5.04 11.85 5.07-11.85h3.6Z"/><path fill="#000" d="m228.808 29-4.11-5.55-4.14 5.55h-4.14l6.24-8.13-5.97-7.89h4.17l3.93 5.25 3.93-5.25h4.05l-6 7.83 6.27 8.19h-4.23ZM235.721 12.98h3.75v6.51h8.07v-6.51h3.75V29h-3.75v-6.33h-8.07V29h-3.75V12.98ZM256.317 12.98h3.75v10.56l8.85-10.56h3.42V29h-3.75V18.44L259.767 29h-3.45V12.98Z"/><path fill="#B17955" d="M68.86 24.14h-10.5L56.29 29h-4.02l9.45-21h3.84l9.48 21h-4.08l-2.1-4.86Zm-1.29-3.06-3.96-9.18-3.93 9.18h7.89ZM77.84 12.98h3.75v6.51h8.07v-6.51h3.75V29h-3.75v-6.33h-8.07V29h-3.75V12.98ZM104.406 12.8c2.36 0 4.16.57 5.4 1.71 1.26 1.12 1.89 2.82 1.89 5.1V29h-3.54v-1.95c-.46.7-1.12 1.24-1.98 1.62-.84.36-1.86.54-3.06.54s-2.25-.2-3.15-.6c-.9-.42-1.6-.99-2.1-1.71-.48-.74-.72-1.57-.72-2.49 0-1.44.53-2.59 1.59-3.45 1.08-.88 2.77-1.32 5.07-1.32h4.14v-.24c0-1.12-.34-1.98-1.02-2.58-.66-.6-1.65-.9-2.97-.9-.9 0-1.79.14-2.67.42-.86.28-1.59.67-2.19 1.17l-1.47-2.73c.84-.64 1.85-1.13 3.03-1.47 1.18-.34 2.43-.51 3.75-.51Zm-.51 13.68c.94 0 1.77-.21 2.49-.63.74-.44 1.26-1.06 1.56-1.86v-1.86h-3.87c-2.16 0-3.24.71-3.24 2.13 0 .68.27 1.22.81 1.62.54.4 1.29.6 2.25.6ZM129.026 16.16h-5.61V29h-3.75V16.16h-5.64v-3.18h15v3.18ZM137.717 12.8c2.36 0 4.16.57 5.4 1.71 1.26 1.12 1.89 2.82 1.89 5.1V29h-3.54v-1.95c-.46.7-1.12 1.24-1.98 1.62-.84.36-1.86.54-3.06.54s-2.25-.2-3.15-.6c-.9-.42-1.6-.99-2.1-1.71-.48-.74-.72-1.57-.72-2.49 0-1.44.53-2.59 1.59-3.45 1.08-.88 2.77-1.32 5.07-1.32h4.14v-.24c0-1.12-.34-1.98-1.02-2.58-.66-.6-1.65-.9-2.97-.9-.9 0-1.79.14-2.67.42-.86.28-1.59.67-2.19 1.17l-1.47-2.73c.84-.64 1.85-1.13 3.03-1.47 1.18-.34 2.43-.51 3.75-.51Zm-.51 13.68c.94 0 1.77-.21 2.49-.63.74-.44 1.26-1.06 1.56-1.86v-1.86h-3.87c-2.16 0-3.24.71-3.24 2.13 0 .68.27 1.22.81 1.62.54.4 1.29.6 2.25.6Z"/><path fill="#B17955" fill-rule="evenodd" d="M19 38c10.493 0 19-8.507 19-19S29.493 0 19 0 0 8.507 0 19s8.507 19 19 19Zm-7.259-10.7 2.001-4.698h10.15l2.03 4.698h3.944L20.702 7H16.99L7.855 27.3h3.886Zm7.076-16.53 3.828 8.874h-7.627l3.799-8.874Z" clip-rule="evenodd"/></svg>